<svg width="223" height="62" viewBox="0 0 223 62" fill="none" xmlns="http://www.w3.org/2000/svg">
<g clip-path="url(#clip0)">
<g filter="url(#filter0_d)">
<path d="M39.9131 22.5596L35.7383 24.3174C35.4128 23.2594 34.9733 22.291 34.4199 21.4121C33.8828 20.5332 33.2318 19.7845 32.4668 19.166C31.7181 18.5312 30.8636 18.043 29.9033 17.7012C28.943 17.3431 27.8932 17.1641 26.7539 17.1641C25.5332 17.1641 24.4102 17.3675 23.3848 17.7744C22.3757 18.165 21.4642 18.7103 20.6504 19.4102C19.8529 20.11 19.153 20.9238 18.5508 21.8516C17.9486 22.7793 17.444 23.7721 17.0371 24.8301C16.6302 25.8717 16.3291 26.9541 16.1338 28.0771C15.9385 29.2002 15.8408 30.2988 15.8408 31.373C15.8408 33.082 16.0361 34.7829 16.4268 36.4756C16.8337 38.1683 17.4684 39.6901 18.3311 41.041C19.21 42.3919 20.3411 43.4906 21.7246 44.3369C23.1081 45.167 24.7845 45.582 26.7539 45.582C27.7956 45.582 28.7803 45.4111 29.708 45.0693C30.6357 44.7113 31.474 44.2311 32.2227 43.6289C32.9876 43.0104 33.6549 42.2861 34.2246 41.4561C34.7943 40.626 35.25 39.7308 35.5918 38.7705L39.8154 40.4551C39.1969 42.0013 38.3506 43.3604 37.2764 44.5322C36.2021 45.6878 34.9733 46.6481 33.5898 47.4131C32.2227 48.1781 30.7497 48.7477 29.1709 49.1221C27.6084 49.5127 26.0296 49.708 24.4346 49.708C22.7093 49.708 21.0492 49.4964 19.4541 49.0732C17.8753 48.6501 16.4023 48.0479 15.0352 47.2666C13.668 46.4854 12.4229 45.5413 11.2998 44.4346C10.193 43.3278 9.24089 42.099 8.44336 40.748C7.66211 39.3971 7.05176 37.9323 6.6123 36.3535C6.18913 34.7585 5.97754 33.0983 5.97754 31.373C5.97754 29.6478 6.18913 27.9958 6.6123 26.417C7.05176 24.8219 7.66211 23.349 8.44336 21.998C9.24089 20.6309 10.193 19.3939 11.2998 18.2871C12.4229 17.1803 13.668 16.2363 15.0352 15.4551C16.4023 14.6738 17.8753 14.0716 19.4541 13.6484C21.0492 13.2253 22.7093 13.0137 24.4346 13.0137C26.0947 13.0137 27.7142 13.209 29.293 13.5996C30.888 13.9902 32.3691 14.5843 33.7363 15.3818C35.1035 16.1631 36.3161 17.1559 37.374 18.3604C38.4482 19.5485 39.2946 20.9482 39.9131 22.5596ZM74.8252 34.8398C74.8252 36.3047 74.6299 37.68 74.2393 38.9658C73.8486 40.2516 73.3034 41.4398 72.6035 42.5303C71.9199 43.6208 71.0898 44.6055 70.1133 45.4844C69.1367 46.347 68.0625 47.0794 66.8906 47.6816C65.735 48.2839 64.4899 48.7477 63.1553 49.0732C61.8369 49.3988 60.4779 49.5615 59.0781 49.5615C57.6784 49.5615 56.3193 49.3988 55.001 49.0732C53.6826 48.7477 52.4375 48.2839 51.2656 47.6816C50.11 47.0794 49.0439 46.347 48.0674 45.4844C47.0908 44.6055 46.2526 43.6208 45.5527 42.5303C44.8691 41.4398 44.332 40.2516 43.9414 38.9658C43.5508 37.6637 43.3555 36.2884 43.3555 34.8398C43.3555 33.3913 43.5508 32.0241 43.9414 30.7383C44.332 29.4362 44.8691 28.2399 45.5527 27.1494C46.2526 26.0589 47.0908 25.0824 48.0674 24.2197C49.0439 23.3408 50.11 22.6003 51.2656 21.998C52.4375 21.3958 53.6826 20.932 55.001 20.6064C56.3193 20.2809 57.6784 20.1182 59.0781 20.1182C60.4779 20.1182 61.8369 20.2809 63.1553 20.6064C64.4899 20.932 65.735 21.3958 66.8906 21.998C68.0625 22.6003 69.1367 23.3408 70.1133 24.2197C71.0898 25.0824 71.9199 26.0589 72.6035 27.1494C73.3034 28.2399 73.8486 29.4362 74.2393 30.7383C74.6299 32.0241 74.8252 33.3913 74.8252 34.8398ZM66.4268 34.8398C66.4268 34.0586 66.3779 33.2367 66.2803 32.374C66.1989 31.4951 66.0524 30.6406 65.8408 29.8105C65.6292 28.9642 65.3363 28.1585 64.9619 27.3936C64.6038 26.6123 64.1562 25.9368 63.6191 25.3672C63.082 24.7812 62.4391 24.3174 61.6904 23.9756C60.9417 23.6175 60.071 23.4385 59.0781 23.4385C58.1341 23.4385 57.2959 23.6175 56.5635 23.9756C55.8311 24.3337 55.1882 24.8138 54.6348 25.416C54.0977 26.002 53.6419 26.6855 53.2676 27.4668C52.9095 28.248 52.6165 29.0618 52.3887 29.9082C52.1608 30.7383 51.998 31.5846 51.9004 32.4473C51.8027 33.2936 51.7539 34.0911 51.7539 34.8398C51.7539 35.5885 51.8027 36.3942 51.9004 37.2568C51.998 38.1032 52.1608 38.9495 52.3887 39.7959C52.6165 40.6423 52.9095 41.4561 53.2676 42.2373C53.6419 43.0023 54.0977 43.6859 54.6348 44.2881C55.1882 44.874 55.8311 45.346 56.5635 45.7041C57.2959 46.0622 58.1341 46.2412 59.0781 46.2412C60.0547 46.2412 60.9173 46.0703 61.666 45.7285C62.4147 45.3704 63.0576 44.8984 63.5947 44.3125C64.1481 43.7266 64.6038 43.0511 64.9619 42.2861C65.32 41.5212 65.6048 40.7155 65.8164 39.8691C66.0443 39.0228 66.1989 38.1683 66.2803 37.3057C66.3779 36.443 66.4268 35.6211 66.4268 34.8398ZM88.3018 49H80.0498V7.81348H83.2236L88.3018 16.3828V49ZM124.972 34.8398C124.972 36.3047 124.776 37.68 124.386 38.9658C123.995 40.2516 123.45 41.4398 122.75 42.5303C122.066 43.6208 121.236 44.6055 120.26 45.4844C119.283 46.347 118.209 47.0794 117.037 47.6816C115.882 48.2839 114.636 48.7477 113.302 49.0732C111.983 49.3988 110.624 49.5615 109.225 49.5615C107.825 49.5615 106.466 49.3988 105.147 49.0732C103.829 48.7477 102.584 48.2839 101.412 47.6816C100.257 47.0794 99.1904 46.347 98.2139 45.4844C97.2373 44.6055 96.3991 43.6208 95.6992 42.5303C95.0156 41.4398 94.4785 40.2516 94.0879 38.9658C93.6973 37.6637 93.502 36.2884 93.502 34.8398C93.502 33.3913 93.6973 32.0241 94.0879 30.7383C94.4785 29.4362 95.0156 28.2399 95.6992 27.1494C96.3991 26.0589 97.2373 25.0824 98.2139 24.2197C99.1904 23.3408 100.257 22.6003 101.412 21.998C102.584 21.3958 103.829 20.932 105.147 20.6064C106.466 20.2809 107.825 20.1182 109.225 20.1182C110.624 20.1182 111.983 20.2809 113.302 20.6064C114.636 20.932 115.882 21.3958 117.037 21.998C118.209 22.6003 119.283 23.3408 120.26 24.2197C121.236 25.0824 122.066 26.0589 122.75 27.1494C123.45 28.2399 123.995 29.4362 124.386 30.7383C124.776 32.0241 124.972 33.3913 124.972 34.8398ZM116.573 34.8398C116.573 34.0586 116.524 33.2367 116.427 32.374C116.345 31.4951 116.199 30.6406 115.987 29.8105C115.776 28.9642 115.483 28.1585 115.108 27.3936C114.75 26.6123 114.303 25.9368 113.766 25.3672C113.229 24.7812 112.586 24.3174 111.837 23.9756C111.088 23.6175 110.217 23.4385 109.225 23.4385C108.281 23.4385 107.442 23.6175 106.71 23.9756C105.978 24.3337 105.335 24.8138 104.781 25.416C104.244 26.002 103.788 26.6855 103.414 27.4668C103.056 28.248 102.763 29.0618 102.535 29.9082C102.307 30.7383 102.145 31.5846 102.047 32.4473C101.949 33.2936 101.9 34.0911 101.9 34.8398C101.9 35.5885 101.949 36.3942 102.047 37.2568C102.145 38.1032 102.307 38.9495 102.535 39.7959C102.763 40.6423 103.056 41.4561 103.414 42.2373C103.788 43.0023 104.244 43.6859 104.781 44.2881C105.335 44.874 105.978 45.346 106.71 45.7041C107.442 46.0622 108.281 46.2412 109.225 46.2412C110.201 46.2412 111.064 46.0703 111.812 45.7285C112.561 45.3704 113.204 44.8984 113.741 44.3125C114.295 43.7266 114.75 43.0511 115.108 42.2861C115.466 41.5212 115.751 40.7155 115.963 39.8691C116.191 39.0228 116.345 38.1683 116.427 37.3057C116.524 36.443 116.573 35.6211 116.573 34.8398ZM154.171 23.292L149.532 30.9824C149.337 30.3314 149.085 29.599 148.775 28.7852C148.466 27.9714 148.084 27.2145 147.628 26.5146C147.172 25.7985 146.627 25.2044 145.992 24.7324C145.357 24.2441 144.625 24 143.795 24C143.03 24 142.363 24.1953 141.793 24.5859C141.24 24.9766 140.768 25.4893 140.377 26.124C139.986 26.7425 139.661 27.4505 139.4 28.248C139.156 29.0293 138.961 29.8268 138.814 30.6406C138.684 31.4382 138.595 32.2113 138.546 32.96C138.497 33.6924 138.473 34.3271 138.473 34.8643V49H130.196V20.8018H133.37L136.715 27.3691C137.171 26.3112 137.691 25.3428 138.277 24.4639C138.863 23.5687 139.539 22.8037 140.304 22.1689C141.069 21.5179 141.931 21.0133 142.892 20.6553C143.868 20.2972 144.967 20.1182 146.188 20.1182C146.822 20.1182 147.53 20.1751 148.312 20.2891C149.093 20.3867 149.858 20.5658 150.606 20.8262C151.355 21.0703 152.047 21.3958 152.682 21.8027C153.316 22.2096 153.813 22.7061 154.171 23.292ZM166.305 13.9902C166.305 14.6087 166.183 15.1947 165.938 15.748C165.711 16.3014 165.393 16.7816 164.986 17.1885C164.579 17.5954 164.099 17.9209 163.546 18.165C162.993 18.3929 162.407 18.5068 161.788 18.5068C161.17 18.5068 160.584 18.3929 160.03 18.165C159.493 17.9209 159.021 17.5954 158.614 17.1885C158.207 16.7816 157.882 16.3014 157.638 15.748C157.41 15.1947 157.296 14.6087 157.296 13.9902C157.296 13.3717 157.41 12.7939 157.638 12.2568C157.882 11.7035 158.207 11.2233 158.614 10.8164C159.021 10.4095 159.493 10.0921 160.03 9.86426C160.584 9.62012 161.17 9.49805 161.788 9.49805C162.407 9.49805 162.993 9.62012 163.546 9.86426C164.099 10.0921 164.579 10.4095 164.986 10.8164C165.393 11.2233 165.711 11.7035 165.938 12.2568C166.183 12.7939 166.305 13.3717 166.305 13.9902ZM165.938 49H157.662V20.8262H165.938V49ZM199.215 9.20508L194.552 16.9199C194.503 16.3014 194.389 15.5934 194.21 14.7959C194.031 13.9821 193.73 13.2171 193.307 12.501C192.9 11.7848 192.33 11.1826 191.598 10.6943C190.882 10.1898 189.962 9.9375 188.839 9.9375C187.683 9.9375 186.756 10.1654 186.056 10.6211C185.356 11.0768 184.819 11.7604 184.444 12.6719C184.07 13.5833 183.818 14.7145 183.688 16.0654C183.557 17.4163 183.492 18.987 183.492 20.7773H192.037V24.0488H183.492V49H175.216V24.0488H170.089V20.7773H175.216C175.216 18.1895 175.493 15.9678 176.046 14.1123C176.599 12.2568 177.438 10.735 178.561 9.54688C179.684 8.34245 181.091 7.46354 182.784 6.91016C184.493 6.34049 186.487 6.05566 188.766 6.05566C190.133 6.05566 191.354 6.15332 192.428 6.34863C193.518 6.52767 194.479 6.77181 195.309 7.08105C196.155 7.37402 196.896 7.70768 197.53 8.08203C198.165 8.45638 198.727 8.83073 199.215 9.20508ZM222.481 20.8018L212.228 45.6064C211.056 48.4385 209.745 51.238 208.297 54.0049C206.865 56.7881 205.31 59.4574 203.634 62.0127L200.411 60.0596C200.818 59.3271 201.298 58.4808 201.852 57.5205C202.405 56.5602 202.95 55.5674 203.487 54.542C204.024 53.5166 204.521 52.4993 204.977 51.4902C205.432 50.4974 205.782 49.5859 206.026 48.7559L193.697 20.8018H201.949L210.323 39.8691L216.769 20.8018H222.481Z" fill="#0D7CFF"/>
</g>
</g>
<defs>
<filter id="filter0_d" x="4.97754" y="4.05566" width="224.504" height="63.957" filterUnits="userSpaceOnUse" color-interpolation-filters="sRGB">
<feFlood flood-opacity="0" result="BackgroundImageFix"/>
<feColorMatrix in="SourceAlpha" type="matrix" values="0 0 0 0 0 0 0 0 0 0 0 0 0 0 0 0 0 0 127 0"/>
<feOffset dx="3" dy="2"/>
<feGaussianBlur stdDeviation="2"/>
<feColorMatrix type="matrix" values="0 0 0 0 0.8 0 0 0 0 0.8 0 0 0 0 0.8 0 0 0 1 0"/>
<feBlend mode="normal" in2="BackgroundImageFix" result="effect1_dropShadow"/>
<feBlend mode="normal" in="SourceGraphic" in2="effect1_dropShadow" result="shape"/>
</filter>
<clipPath id="clip0">
<rect width="223" height="62" fill="white"/>
</clipPath>
</defs>
</svg>
