<svg width="246" height="271" viewBox="0 0 246 271" fill="none" xmlns="http://www.w3.org/2000/svg">
<path d="M151.636 268.992C187.883 264.422 221.083 245.923 243.943 217.56C245.335 215.795 245.975 213.575 245.722 211.381C245.47 209.187 244.346 207.197 242.595 205.841C240.843 204.485 238.606 203.872 236.366 204.138C234.127 204.402 232.067 205.522 230.632 207.254C210.593 232.106 181.494 248.312 149.729 252.313C134.149 254.452 118.353 253.508 103.271 249.539C88.1899 245.569 74.1291 238.653 61.9189 229.199C49.7084 219.745 39.5954 207.945 32.1763 194.494C24.7579 181.043 20.1836 166.215 18.7235 150.883C15.426 119.708 24.8376 88.2737 44.902 63.4478C64.9668 38.6213 94.0535 22.4208 125.81 18.3844C141.285 16.2745 156.973 17.1988 171.963 21.1035C186.953 25.0084 200.947 31.8161 213.134 41.1319C215.658 43.2176 217.233 46.2067 217.525 49.4617C217.817 52.7166 216.802 55.9796 214.695 58.5548C212.59 61.1306 209.56 62.8147 206.252 63.2484C202.944 63.6821 199.62 62.8308 196.988 60.8762C196.748 60.6909 196.497 60.5185 196.239 60.3602C177.308 46.6683 153.584 40.8075 130.025 44.0031C105.329 47.1514 82.7105 59.7546 67.106 79.0623C51.5011 98.3704 44.1777 122.815 46.7325 147.062C47.8854 159.026 51.4652 170.595 57.2611 181.088C63.057 191.582 70.9523 200.788 80.481 208.166C90.0098 215.543 100.981 220.944 112.749 224.049C124.516 227.153 136.842 227.9 149.003 226.244C173.709 223.126 196.338 210.517 211.919 191.183C214.406 188.163 216.269 184.698 217.401 180.993C218.532 177.286 218.91 173.411 218.512 169.59C218.114 165.768 216.949 162.078 215.083 158.73C213.218 155.382 210.689 152.445 207.642 150.086C204.596 147.727 201.093 145.995 197.335 144.989C193.577 143.982 189.64 143.722 185.748 144.223C181.857 144.724 178.092 145.976 174.667 147.906C171.243 149.837 168.228 152.41 165.797 155.473C165.641 155.667 165.506 155.859 165.371 156.058C165.205 156.232 165.042 156.408 164.888 156.598C160.646 161.936 154.91 165.944 148.409 168.115C141.909 170.286 134.938 170.521 128.379 168.791C121.821 167.061 115.97 163.444 111.571 158.4C107.172 153.354 104.421 147.109 103.669 140.454C102.917 133.8 104.196 127.037 107.346 121.024C110.495 115.01 115.372 110.018 121.358 106.679C127.344 103.341 134.169 101.807 140.967 102.272C147.765 102.737 154.23 105.181 159.541 109.293C160.413 109.985 161.42 110.498 162.503 110.801C163.586 111.104 164.723 111.192 165.849 111.059C166.975 110.925 168.069 110.575 169.064 110.026C170.06 109.477 170.938 108.742 171.649 107.862C172.36 106.982 172.889 105.976 173.205 104.901C173.522 103.827 173.619 102.705 173.492 101.602C173.365 100.499 173.017 99.4356 172.466 98.4739C171.915 97.5123 171.174 96.6715 170.284 96.0001C162.368 89.9416 152.756 86.3598 142.664 85.707C132.572 85.0543 122.451 87.3597 113.578 92.3324C104.704 97.3051 97.4765 104.722 92.8059 113.648C88.1354 122.574 86.232 132.608 87.3347 142.486C88.438 152.363 92.4985 161.641 99.0041 169.149C105.509 176.655 114.169 182.056 123.889 184.668C133.609 187.28 143.955 186.988 153.622 183.827C163.288 180.666 171.841 174.778 178.203 166.907C178.359 166.713 178.494 166.521 178.629 166.323C178.795 166.149 178.958 165.972 179.112 165.782C180.132 164.467 181.406 163.36 182.858 162.526C184.309 161.693 185.91 161.149 187.564 160.927C189.22 160.705 190.898 160.809 192.499 161.233C194.1 161.657 195.594 162.394 196.89 163.398C198.187 164.402 199.263 165.655 200.053 167.082C200.844 168.509 201.333 170.083 201.494 171.712C201.654 173.338 201.482 174.989 200.987 176.562C200.492 178.138 199.685 179.605 198.612 180.88C185.851 196.705 167.322 207.024 147.094 209.571C137.183 210.935 127.133 210.337 117.537 207.813C107.942 205.289 98.9958 200.889 91.2269 194.874C83.4591 188.859 77.025 181.352 72.3066 172.793C67.5883 164.235 64.6798 154.8 63.7544 145.045C61.6529 125.195 67.645 105.179 80.4208 89.3712C93.1966 73.5635 111.718 63.2487 131.938 60.6803C141.849 59.3266 151.896 59.929 161.489 62.4523C171.082 64.9755 180.027 69.3684 187.801 75.3735C188.4 75.8343 189.061 76.2124 189.766 76.4977C196.134 80.0168 203.643 81.0737 210.857 79.4671C218.07 77.8605 224.478 73.7027 228.851 67.7915C233.224 61.8802 235.254 54.631 234.553 47.4358C233.852 40.2407 230.468 33.6057 225.051 28.8034C224.833 28.5924 224.603 28.3926 224.362 28.2056C224.228 28.1019 224.095 27.9989 223.961 27.8951C223.895 27.844 223.831 27.7943 223.767 27.7447C223.703 27.6951 223.631 27.6517 223.565 27.604C209.641 17.0002 193.666 9.253 176.56 4.80914C159.455 0.365155 141.558 -0.687405 123.9 1.71188C87.6692 6.32866 54.4861 24.8174 31.5929 53.1434C8.70027 81.4688 -2.04295 117.331 1.70725 152.903C3.39476 170.443 8.64028 187.406 17.1369 202.791C25.6328 218.177 37.2066 231.676 51.1777 242.493C65.1488 253.31 81.2341 261.226 98.4885 265.777C115.741 270.328 133.813 271.419 151.642 268.988L151.636 268.992Z" fill="url(#paint0_linear)"/>
<defs>
<linearGradient id="paint0_linear" x1="1.59604" y1="152.197" x2="243.498" y2="128.574" gradientUnits="userSpaceOnUse">
<stop stop-color="#5891FF"/>
<stop offset="0.123" stop-color="#5891FF"/>
<stop offset="0.284" stop-color="#5891FF"/>
<stop offset="0.465" stop-color="#5767F9"/>
<stop offset="0.663" stop-color="#5767F9"/>
<stop offset="0.87" stop-color="#394DFF"/>
<stop offset="0.99" stop-color="#394DFF"/>
</linearGradient>
</defs>
</svg>
